<?xml version="1.0" encoding="utf-8"?>
<!-- Generator: Adobe Illustrator 23.0.1, SVG Export Plug-In . SVG Version: 6.00 Build 0)  -->
<svg version="1.1" id="Capa_1" xmlns="http://www.w3.org/2000/svg" xmlns:xlink="http://www.w3.org/1999/xlink" x="0px" y="0px"
	 viewBox="0 0 960 560" style="enable-background:new 0 0 960 560;" xml:space="preserve">
<style type="text/css">
	.st0{fill:#218380;}
	.st1{fill:#218280;}
</style>
<g>
	<g>
		<path class="st0" d="M487.98,218.44l-35.07,59.93l-38.98-22.5l20.93-36.25c0.01-0.02,0.02-0.03,0.03-0.05
			c3.87-6.64,13.29-12.07,20.97-12.07h40.36c1.78,0,3.66,0.29,5.53,0.83c-5.64,1.92-11.04,5.71-13.74,10.06
			C487.99,218.41,487.98,218.42,487.98,218.44z"/>
		<path class="st0" d="M546.08,245.1l-19.01,36.59l-41.19-1.83l10.61-6.13l-7.52-13.03l-6.51-11.28l-3.46-5.99l13.19-22.29
			l0.08-0.11l0.06-0.12c3.06-4.76,10.87-8.91,16.82-8.91h0.53c3.15,2.07,5.85,4.71,7.51,7.57c0.01,0.02,0.02,0.03,0.03,0.05
			l18.25,31.61L546.08,245.1z"/>
	</g>
</g>
<g>
	<g>
		<path class="st0" d="M551.95,364.58l-34.37-60.34l38.98-22.51l20.93,36.25c0.01,0.02,0.02,0.03,0.03,0.05
			c3.82,6.67,3.81,17.54-0.03,24.2l-20.18,34.95c-0.89,1.54-2.08,3.02-3.48,4.37c1.16-5.84,0.57-12.42-1.84-16.93
			C551.97,364.61,551.96,364.6,551.95,364.58z"/>
		<path class="st0" d="M499.81,401.57l-22.18-34.76l22.18-34.76l0,12.25l15.04,0l13.02,0l6.92,0l12.71,22.57l0.06,0.12l0.07,0.11
			c2.59,5.03,2.28,13.87-0.69,19.02l-0.27,0.46c-3.37,1.69-7,2.71-10.31,2.72c-0.02,0-0.04,0-0.06,0l-36.5,0L499.81,401.57z"/>
	</g>
</g>
<g>
	<g>
		<path class="st0" d="M395.49,343.77l69.44,0.41l0,45.01l-41.86,0c-0.02,0-0.04,0-0.06,0c-7.69-0.03-17.1-5.47-20.94-12.13
			L381.9,342.1c-0.89-1.54-1.58-3.31-2.05-5.2c4.48,3.92,10.47,6.71,15.58,6.87C395.46,343.76,395.47,343.77,395.49,343.77z"/>
		<path class="st0" d="M389.53,280.12l41.19-1.83l19.01,36.59l-10.61-6.12l-7.52,13.03l-6.51,11.28l-3.46,5.99l-25.9-0.28
			l-0.14-0.01l-0.13,0.01c-5.65-0.27-13.15-4.96-16.13-10.11l-0.26-0.46c0.22-3.76,1.15-7.42,2.8-10.29
			c0.01-0.02,0.02-0.03,0.03-0.05l18.25-31.61L389.53,280.12z"/>
	</g>
</g>
<path class="st1" d="M480,284c-18.02,0-31.75,21.71-31.75,21.71S459.41,324,480,324s31.75-18.29,31.75-18.29S498.02,284,480,284z
	 M480,322.31c-4.93,0-8.93-8.25-8.93-18.42c0-10.18,4-18.43,8.93-18.43s8.93,8.25,8.93,18.43
	C488.93,314.06,484.93,322.31,480,322.31z"/>
</svg>
